<svg xmlns="http://www.w3.org/2000/svg" width="300" height="300" viewBox="0 0 300 300"><g fill="none" fill-rule="evenodd" transform="translate(10 10)"><rect width="280" height="280" stroke="#fff" stroke-width="20" rx="140"/><path fill="#fff" fill-rule="nonzero" d="M205.093 194.308c11.207 0 20.292 9.06 20.292 20.235 0 11.176-9.085 20.236-20.292 20.236s-20.293-9.06-20.293-20.236 9.085-20.235 20.293-20.235m-74.037-13.27c14.943 0 27.057 12.08 27.057 26.981S145.999 235 131.056 235 104 222.92 104 208.02c0-14.902 12.114-26.982 27.056-26.982M188.797 97C209.344 97 226 113.61 226 134.099s-16.656 37.098-37.203 37.098c-20.546 0-37.202-16.61-37.202-37.098 0-20.49 16.656-37.099 37.202-37.099"/></g></svg>